<mxfile host="app.diagrams.net" modified="2022-02-26T09:40:00.681Z" agent="5.0 (Windows NT 10.0; Win64; x64) AppleWebKit/537.36 (KHTML, like Gecko) Chrome/98.0.4758.102 Safari/537.36 Edg/98.0.1108.56" etag="1bCWnnGO9fxDYyhHgUVu" version="16.6.4" type="github">
  <diagram id="pkrnBZ31O33gXuKPcnR_" name="Page-1">
    <mxGraphModel dx="1058" dy="794" grid="1" gridSize="10" guides="1" tooltips="1" connect="1" arrows="1" fold="1" page="1" pageScale="1" pageWidth="827" pageHeight="1169" math="0" shadow="0">
      <root>
        <mxCell id="0" />
        <mxCell id="1" parent="0" />
        <mxCell id="kKUYvnr-Q00udqjfxyr7-9" style="edgeStyle=orthogonalEdgeStyle;rounded=0;orthogonalLoop=1;jettySize=auto;html=1;exitX=0.5;exitY=1;exitDx=0;exitDy=0;entryX=0.5;entryY=0;entryDx=0;entryDy=0;fontSize=19;strokeWidth=2;" edge="1" parent="1" source="kKUYvnr-Q00udqjfxyr7-1" target="kKUYvnr-Q00udqjfxyr7-2">
          <mxGeometry relative="1" as="geometry" />
        </mxCell>
        <mxCell id="kKUYvnr-Q00udqjfxyr7-1" value="&lt;font face=&quot;Times New Roman&quot; size=&quot;1&quot;&gt;&lt;b style=&quot;font-size: 19px&quot;&gt;阅读文献与&lt;br&gt;分析领域本体概念&lt;/b&gt;&lt;/font&gt;" style="rounded=0;whiteSpace=wrap;html=1;strokeWidth=2;" vertex="1" parent="1">
          <mxGeometry x="310" y="86" width="200" height="60" as="geometry" />
        </mxCell>
        <mxCell id="kKUYvnr-Q00udqjfxyr7-10" style="edgeStyle=orthogonalEdgeStyle;rounded=0;orthogonalLoop=1;jettySize=auto;html=1;exitX=0.5;exitY=1;exitDx=0;exitDy=0;fontSize=19;strokeWidth=2;" edge="1" parent="1" source="kKUYvnr-Q00udqjfxyr7-2" target="kKUYvnr-Q00udqjfxyr7-3">
          <mxGeometry relative="1" as="geometry" />
        </mxCell>
        <mxCell id="kKUYvnr-Q00udqjfxyr7-2" value="&lt;font face=&quot;Times New Roman&quot;&gt;&lt;span style=&quot;font-size: 19px&quot;&gt;&lt;b&gt;确定领域本体框架&lt;/b&gt;&lt;/span&gt;&lt;/font&gt;" style="rounded=0;whiteSpace=wrap;html=1;strokeWidth=2;" vertex="1" parent="1">
          <mxGeometry x="310" y="180" width="200" height="30" as="geometry" />
        </mxCell>
        <mxCell id="kKUYvnr-Q00udqjfxyr7-11" style="edgeStyle=orthogonalEdgeStyle;rounded=0;orthogonalLoop=1;jettySize=auto;html=1;exitX=0.5;exitY=1;exitDx=0;exitDy=0;entryX=0.5;entryY=0;entryDx=0;entryDy=0;fontSize=19;strokeWidth=2;" edge="1" parent="1" source="kKUYvnr-Q00udqjfxyr7-3" target="kKUYvnr-Q00udqjfxyr7-4">
          <mxGeometry relative="1" as="geometry" />
        </mxCell>
        <mxCell id="kKUYvnr-Q00udqjfxyr7-3" value="&lt;font face=&quot;Times New Roman&quot;&gt;&lt;span style=&quot;font-size: 19px&quot;&gt;&lt;b&gt;定义类和类的层级&lt;/b&gt;&lt;/span&gt;&lt;/font&gt;" style="rounded=0;whiteSpace=wrap;html=1;strokeWidth=2;" vertex="1" parent="1">
          <mxGeometry x="310" y="237" width="200" height="33" as="geometry" />
        </mxCell>
        <mxCell id="kKUYvnr-Q00udqjfxyr7-12" style="edgeStyle=orthogonalEdgeStyle;rounded=0;orthogonalLoop=1;jettySize=auto;html=1;exitX=0.5;exitY=1;exitDx=0;exitDy=0;entryX=0.5;entryY=0;entryDx=0;entryDy=0;fontSize=19;strokeWidth=2;" edge="1" parent="1" source="kKUYvnr-Q00udqjfxyr7-4" target="kKUYvnr-Q00udqjfxyr7-5">
          <mxGeometry relative="1" as="geometry" />
        </mxCell>
        <mxCell id="kKUYvnr-Q00udqjfxyr7-4" value="&lt;font face=&quot;Times New Roman&quot;&gt;&lt;span style=&quot;font-size: 19px&quot;&gt;&lt;b&gt;定义类的属性&lt;/b&gt;&lt;/span&gt;&lt;/font&gt;" style="rounded=0;whiteSpace=wrap;html=1;strokeWidth=2;" vertex="1" parent="1">
          <mxGeometry x="310" y="300" width="200" height="30" as="geometry" />
        </mxCell>
        <mxCell id="kKUYvnr-Q00udqjfxyr7-13" style="edgeStyle=orthogonalEdgeStyle;rounded=0;orthogonalLoop=1;jettySize=auto;html=1;exitX=0.5;exitY=1;exitDx=0;exitDy=0;fontSize=19;strokeWidth=2;" edge="1" parent="1" source="kKUYvnr-Q00udqjfxyr7-5" target="kKUYvnr-Q00udqjfxyr7-6">
          <mxGeometry relative="1" as="geometry" />
        </mxCell>
        <mxCell id="kKUYvnr-Q00udqjfxyr7-5" value="&lt;font face=&quot;Times New Roman&quot;&gt;&lt;span style=&quot;font-size: 19px&quot;&gt;&lt;b&gt;定义类间的属性约束&lt;/b&gt;&lt;/span&gt;&lt;/font&gt;" style="rounded=0;whiteSpace=wrap;html=1;strokeWidth=2;" vertex="1" parent="1">
          <mxGeometry x="310" y="360" width="200" height="30" as="geometry" />
        </mxCell>
        <mxCell id="kKUYvnr-Q00udqjfxyr7-14" style="edgeStyle=orthogonalEdgeStyle;rounded=0;orthogonalLoop=1;jettySize=auto;html=1;exitX=0.5;exitY=1;exitDx=0;exitDy=0;fontSize=19;strokeWidth=2;" edge="1" parent="1" source="kKUYvnr-Q00udqjfxyr7-6" target="kKUYvnr-Q00udqjfxyr7-7">
          <mxGeometry relative="1" as="geometry" />
        </mxCell>
        <mxCell id="kKUYvnr-Q00udqjfxyr7-6" value="&lt;font face=&quot;Times New Roman&quot;&gt;&lt;span style=&quot;font-size: 19px&quot;&gt;&lt;b&gt;创建类的实例&lt;/b&gt;&lt;/span&gt;&lt;/font&gt;" style="rounded=0;whiteSpace=wrap;html=1;strokeWidth=2;" vertex="1" parent="1">
          <mxGeometry x="310" y="420" width="200" height="30" as="geometry" />
        </mxCell>
        <mxCell id="kKUYvnr-Q00udqjfxyr7-15" style="edgeStyle=orthogonalEdgeStyle;rounded=0;orthogonalLoop=1;jettySize=auto;html=1;exitX=0.5;exitY=1;exitDx=0;exitDy=0;fontSize=19;strokeWidth=2;" edge="1" parent="1" source="kKUYvnr-Q00udqjfxyr7-7" target="kKUYvnr-Q00udqjfxyr7-8">
          <mxGeometry relative="1" as="geometry" />
        </mxCell>
        <mxCell id="kKUYvnr-Q00udqjfxyr7-16" style="edgeStyle=orthogonalEdgeStyle;rounded=0;orthogonalLoop=1;jettySize=auto;html=1;exitX=1;exitY=0.5;exitDx=0;exitDy=0;fontSize=19;strokeWidth=2;" edge="1" parent="1" source="kKUYvnr-Q00udqjfxyr7-7">
          <mxGeometry relative="1" as="geometry">
            <mxPoint x="410" y="160" as="targetPoint" />
            <Array as="points">
              <mxPoint x="560" y="505" />
              <mxPoint x="560" y="160" />
              <mxPoint x="440" y="160" />
            </Array>
          </mxGeometry>
        </mxCell>
        <mxCell id="kKUYvnr-Q00udqjfxyr7-7" value="&lt;b&gt;通过本体评估&lt;/b&gt;" style="rhombus;whiteSpace=wrap;html=1;fontSize=19;strokeWidth=2;" vertex="1" parent="1">
          <mxGeometry x="311" y="480" width="196" height="50" as="geometry" />
        </mxCell>
        <mxCell id="kKUYvnr-Q00udqjfxyr7-8" value="&lt;font face=&quot;Times New Roman&quot;&gt;&lt;span style=&quot;font-size: 19px&quot;&gt;&lt;b&gt;形成领域本体&lt;/b&gt;&lt;/span&gt;&lt;/font&gt;" style="rounded=0;whiteSpace=wrap;html=1;strokeWidth=2;" vertex="1" parent="1">
          <mxGeometry x="309" y="560" width="200" height="30" as="geometry" />
        </mxCell>
        <mxCell id="kKUYvnr-Q00udqjfxyr7-17" value="&lt;b&gt;N&lt;/b&gt;" style="text;html=1;align=center;verticalAlign=middle;resizable=0;points=[];autosize=1;strokeColor=none;fillColor=none;fontSize=19;" vertex="1" parent="1">
          <mxGeometry x="515" y="480" width="30" height="30" as="geometry" />
        </mxCell>
        <mxCell id="kKUYvnr-Q00udqjfxyr7-18" value="&lt;b&gt;Y&lt;/b&gt;" style="text;html=1;align=center;verticalAlign=middle;resizable=0;points=[];autosize=1;strokeColor=none;fillColor=none;fontSize=19;" vertex="1" parent="1">
          <mxGeometry x="408" y="528" width="30" height="30" as="geometry" />
        </mxCell>
      </root>
    </mxGraphModel>
  </diagram>
</mxfile>
